<svg width="103" height="37" viewBox="0 0 103 37" fill="none" xmlns="http://www.w3.org/2000/svg">
<path d="M102.5 17.9375V18.5781H0V17.9375H102.5Z" fill="#114D00"/>
<path d="M0.0197656 17.9375C3.43741 18.0434 8.77089 19.0895 13.7025 21.8832C18.641 24.6808 23.1881 29.2391 24.9844 36.3637L24.3704 36.5156C22.6247 29.5914 18.2117 25.1598 13.3887 22.4277C8.55879 19.6916 3.32902 18.6679 0 18.5647L0.0197656 17.9375Z" fill="#114D00"/>
<path d="M0.0197656 18.5781C3.43741 18.4722 8.77089 17.4261 13.7025 14.6324C18.641 11.8349 23.1881 7.27651 24.9844 0.151899L24.3704 7.70669e-07C22.6247 6.92421 18.2117 11.3558 13.3887 14.0879C8.55879 16.824 3.32902 17.8478 0 17.9509L0.0197656 18.5781Z" fill="#114D00"/>
</svg>
