<svg width="103" height="37" viewBox="0 0 103 37" fill="none" xmlns="http://www.w3.org/2000/svg">
<path d="M-4.44055e-06 18.5781L-4.38454e-06 17.9375L102.5 17.9375L102.5 18.5781L-4.44055e-06 18.5781Z" fill="#114D00"/>
<path d="M102.48 18.5781C99.0626 18.4722 93.7291 17.4261 88.7975 14.6325C83.859 11.8349 79.3119 7.27652 77.5156 0.151906L78.1296 7.60098e-06C79.8753 6.92422 84.2883 11.3558 89.1113 14.0879C93.9412 16.824 99.171 17.8478 102.5 17.9509L102.48 18.5781Z" fill="#114D00"/>
<path d="M102.48 17.9375C99.0626 18.0434 93.7291 19.0895 88.7975 21.8832C83.859 24.6808 79.3119 29.2391 77.5156 36.3637L78.1296 36.5156C79.8753 29.5914 84.2883 25.1598 89.1113 22.4277C93.9412 19.6916 99.171 18.6679 102.5 18.5647L102.48 17.9375Z" fill="#114D00"/>
</svg>
